<?xml version="1.0" encoding="iso-8859-1"?>
<!-- Uploaded to: SVG Repo, www.svgrepo.com, Generator: SVG Repo Mixer Tools -->
<svg fill="#000000" height="800px" width="800px" version="1.1" id="Layer_1" xmlns="http://www.w3.org/2000/svg" xmlns:xlink="http://www.w3.org/1999/xlink" 
	 viewBox="0 0 512 512" xml:space="preserve">
<g>
	<g>
		<path d="M454.646,434.448c-11.539-22.315-34.907-36.852-60.324-36.852c-25.415,0-48.784,14.536-60.323,36.852
			c-28.25,0.785-51.604,21.625-56.436,48.83h-50.917c-5.77,0-10.449,4.679-10.449,10.449c0,5.77,4.679,10.449,10.449,10.449h60.448
			c5.77,0,10.449-4.679,10.449-10.449c0-21.177,17.092-38.404,38.103-38.404c1.257,0,2.588,0.069,3.954,0.207
			c4.701,0.476,9.134-2.265,10.815-6.681c6.906-18.156,24.551-30.355,43.908-30.355c19.357,0,37.003,12.198,43.908,30.354
			c1.678,4.417,6.116,7.158,10.816,6.682c1.365-0.138,2.694-0.207,3.95-0.207c17.421,0,32.147,11.84,36.674,27.955H365.4
			c-5.77,0-10.449,4.679-10.449,10.449c0,5.77,4.679,10.449,10.449,10.449h136.151c5.77,0,10.449-4.679,10.449-10.449
			C512,461.583,486.422,435.33,454.646,434.448z"/>
	</g>
</g>
<g>
	<g>
		<path d="M333.53,483.278h-0.163c-5.77,0-10.449,4.679-10.449,10.449c0,5.77,4.679,10.449,10.449,10.449h0.163
			c5.77,0,10.449-4.679,10.449-10.449C343.979,487.957,339.301,483.278,333.53,483.278z"/>
	</g>
</g>
<g>
	<g>
		<path d="M193.372,483.278h-0.163c-5.77,0-10.449,4.679-10.449,10.449c0,5.77,4.679,10.449,10.449,10.449h0.163
			c5.77,0,10.449-4.679,10.449-10.449C203.821,487.957,199.143,483.278,193.372,483.278z"/>
	</g>
</g>
<g>
	<g>
		<path d="M114.66,28.409C106.631,15.724,92.581,7.824,77.271,7.824c-15.511,0-29.547,8.025-37.5,20.744
			c-1.968-0.354-3.969-0.535-5.978-0.535C15.16,28.034,0,43.194,0,61.829c0,7.92,2.8,15.624,7.886,21.694
			c1.985,2.369,4.918,3.737,8.009,3.737h111.622c3.091,0,6.024-1.369,8.009-3.738c5.084-6.07,7.886-13.774,7.886-21.694
			C143.412,44.907,130.911,30.85,114.66,28.409z M121.702,66.364H21.711c-0.486-1.289-0.813-2.801-0.813-4.535
			c0-7.112,5.785-12.897,12.896-12.897c2.232,0,4.347,0.551,6.286,1.636c2.72,1.524,5.981,1.752,8.889,0.625
			c2.907-1.13,5.159-3.498,6.138-6.46c3.168-9.577,12.076-16.011,22.165-16.011c9.272,0,17.671,5.494,21.395,13.997
			c1.754,4.003,5.831,6.482,10.176,6.239c0.257-0.016,0.515-0.026,0.775-0.026c7.112,0,12.896,5.786,12.896,12.897
			C122.515,63.563,122.188,65.075,121.702,66.364z"/>
	</g>
</g>
<g>
	<g>
		<path d="M501.551,19.377H363.8c-5.77,0-10.449,4.679-10.449,10.449c0,5.77,4.679,10.449,10.449,10.449h137.751
			c5.77,0,10.449-4.679,10.449-10.449C512,24.056,507.321,19.377,501.551,19.377z"/>
	</g>
</g>
<g>
	<g>
		<path d="M328.181,19.377h-0.123c-5.77,0-10.449,4.679-10.449,10.449c0,5.77,4.678,10.449,10.449,10.449h0.123
			c5.77,0,10.449-4.679,10.449-10.449C338.63,24.056,333.95,19.377,328.181,19.377z"/>
	</g>
</g>
<g>
	<g>
		<path d="M451.855,51.703H363.8c-5.77,0-10.449,4.679-10.449,10.449c0,5.77,4.679,10.449,10.449,10.449h88.055
			c5.77,0,10.449-4.679,10.449-10.449C462.304,56.382,457.625,51.703,451.855,51.703z"/>
	</g>
</g>
<g>
	<g>
		<path d="M329.556,51.703H260.68c-5.77,0-10.449,4.679-10.449,10.449c0,5.77,4.679,10.449,10.449,10.449h68.875
			c5.77,0,10.449-4.679,10.449-10.449C340.005,56.382,335.326,51.703,329.556,51.703z"/>
	</g>
</g>
<g>
	<g>
		<path d="M172.756,411.115H75.797c-5.77,0-10.449,4.679-10.449,10.449c0,5.77,4.679,10.449,10.449,10.449h96.959
			c5.77,0,10.449-4.679,10.449-10.449C183.205,415.794,178.526,411.115,172.756,411.115z"/>
	</g>
</g>
<g>
	<g>
		<path d="M40.177,411.115h-0.123c-5.77,0-10.449,4.679-10.449,10.449c0,5.77,4.679,10.449,10.449,10.449h0.123
			c5.77,0,10.449-4.679,10.449-10.449C50.626,415.794,45.947,411.115,40.177,411.115z"/>
	</g>
</g>
<g>
	<g>
		<path d="M74.979,443.605H10.818c-5.771,0-10.449,4.679-10.449,10.449c0,5.77,4.678,10.449,10.449,10.449h64.161
			c5.77,0,10.449-4.679,10.449-10.449C85.428,448.284,80.749,443.605,74.979,443.605z"/>
	</g>
</g>
<g>
	<g>
		<path d="M494.947,124.1c-36.704-19.626-80.138-18.92-116.18,1.888c0,0-112.967,65.236-113.545,65.779l-95.823-12.887
			c-2.29-0.306-4.617,0.151-6.617,1.307l-37.872,21.867c-3.581,2.068-5.605,6.05-5.165,10.161c0.44,4.112,3.261,7.576,7.198,8.839
			l55.828,17.91l-66.113,38.113l-60.721-30.185c-3.135-1.558-6.843-1.444-9.875,0.308l-40.468,23.36
			c-2.856,1.649-4.766,4.549-5.152,7.824c-0.387,3.276,0.796,6.541,3.19,8.81c-0.001,0,24.544,23.258,24.553,23.268l64.362,60.99
			c4.293,4.069,9.629,6.832,15.426,7.989l32.076,6.411c2.04,0.409,4.099,0.609,6.151,0.609c5.467,0,10.876-1.43,15.678-4.202
			l324.435-187.314c16.588-9.576,25.95-24.44,25.684-40.777C511.783,141.129,505.25,129.608,494.947,124.1z M428.05,151.725
			l29.634-17.109c0.741-0.427,1.401-0.94,1.994-1.507c8.078,1.79,16.005,4.617,23.603,8.486l-45.809,26.448
			c-3.037,1.754-6.803,1.156-8.223-1.305l-4.181-7.239C423.647,157.039,425.013,153.478,428.05,151.725z M475.861,176.845
			L151.429,364.158c-2.202,1.273-4.787,1.699-7.285,1.2l-32.077-6.413c-1.935-0.386-3.715-1.308-5.147-2.666l-32.498-30.796
			l17.004-9.818c4.998-2.886,6.71-9.276,3.824-14.273c-2.886-4.996-9.276-6.71-14.273-3.824L58.598,310.49l-5.756-5.455l5.619-3.244
			c4.998-2.885,6.71-9.276,3.824-14.273c-2.886-4.996-9.272-6.709-14.273-3.824l-10.993,6.347l-8.848-8.384l23.483-13.558
			l60.717,30.183c3.133,1.558,6.839,1.444,9.869-0.305l87.411-50.39l19.823,6.359c1.062,0.34,2.137,0.502,3.194,0.502
			c4.419,0,8.525-2.826,9.948-7.26c1.763-5.495-1.263-11.379-6.758-13.142l-80.074-25.687l14.36-8.291l115.757,15.567
			c5.715,0.763,10.979-3.243,11.749-8.963c0.422-3.141-0.604-6.138-2.556-8.334l94.115-54.248
			c9.485-5.476,19.591-9.258,29.937-11.354l-1.546,0.892c-13.068,7.546-17.836,23.839-10.631,36.323l4.181,7.239
			c4.743,8.214,13.506,12.761,22.669,12.761c4.763,0,9.633-1.229,14.101-3.809l41.8-24.134
			C487.517,167.686,482.742,172.872,475.861,176.845z"/>
	</g>
</g>
<g>
	<g>
		<path d="M348.135,210.53c-2.886-4.997-9.277-6.709-14.273-3.824L140.595,318.289c-4.998,2.886-6.71,9.276-3.824,14.273
			c1.935,3.352,5.446,5.227,9.058,5.227c1.772,0,3.569-0.452,5.214-1.402l193.267-111.583
			C349.308,221.918,351.021,215.528,348.135,210.53z"/>
	</g>
</g>
<g>
	<g>
		<path d="M379.137,192.686c-2.863-5.011-9.249-6.752-14.257-3.889l-0.108,0.062c-5.011,2.863-6.752,9.246-3.889,14.257
			c1.93,3.376,5.455,5.267,9.082,5.267c1.759,0,3.54-0.444,5.174-1.378l0.108-0.062C380.259,204.079,382,197.696,379.137,192.686z"
			/>
	</g>
</g>
</svg>